<!DOCTYPE svg PUBLIC "-//W3C//DTD SVG 20010904//EN" "http://www.w3.org/TR/2001/REC-SVG-20010904/DTD/svg10.dtd">
<svg version="1.0" xmlns="http://www.w3.org/2000/svg" width="580px" height="379px" viewBox="0 0 5800 3790" preserveAspectRatio="xMidYMid meet">
<g id="layer101" fill="#333132" stroke="none">
 <path d="M0 1895 l0 -1895 2900 0 2900 0 0 1895 0 1895 -2900 0 -2900 0 0 -1895z"/>
 </g>
<g id="layer102" fill="#ffffff" stroke="none">
 <path d="M0 1895 l0 -1895 2900 0 2900 0 0 1895 0 1895 -2900 0 -2900 0 0 -1895z m2650 1258 l1 -38 34 38 c23 27 40 38 55 35 21 -3 19 -6 -18 -49 l-41 -46 34 -33 c19 -19 35 -38 35 -42 0 -19 -36 -6 -67 24 l-33 32 0 -32 c0 -25 -4 -32 -20 -32 -19 0 -20 7 -20 90 0 83 1 90 20 90 16 0 20 -7 20 -37z m170 -53 c0 -83 -1 -90 -20 -90 -19 0 -20 7 -20 90 0 83 1 90 20 90 19 0 20 -7 20 -90z m82 33 l3 -58 35 57 c21 34 42 58 53 58 15 0 17 -11 17 -90 0 -83 -1 -90 -20 -90 -17 0 -20 7 -20 51 l0 52 -37 -52 c-21 -28 -46 -51 -55 -51 -16 0 -18 11 -18 90 0 83 2 90 20 90 16 0 19 -8 22 -57z m288 12 c0 -38 -3 -45 -20 -45 -16 0 -20 7 -20 30 0 23 -5 30 -19 30 -22 0 -51 -35 -51 -62 0 -31 39 -61 70 -54 19 3 30 1 33 -9 12 -30 -68 -34 -106 -5 -31 25 -41 62 -27 106 14 43 33 53 93 54 l47 0 0 -45z m-633 -45 c-1 -19 -8 -20 -239 -20 -231 0 -238 1 -238 20 0 19 7 20 239 20 234 0 240 -1 238 -20z m1163 0 c0 -19 -7 -20 -234 -20 -146 0 -237 4 -241 10 -16 26 15 30 241 30 227 0 234 -1 234 -20z m-1094 -151 c54 -14 74 -40 74 -95 0 -49 -30 -81 -104 -109 -49 -19 -63 -39 -44 -62 12 -15 65 -14 98 1 11 4 19 -2 27 -24 11 -29 10 -32 -13 -41 -38 -14 -111 -11 -144 6 -35 18 -50 43 -50 83 0 42 32 76 94 102 57 23 74 43 55 66 -13 16 -76 18 -112 5 -20 -8 -25 -5 -34 20 -13 33 -7 39 47 50 52 10 57 10 106 -2z m873 -16 c14 -11 37 -35 49 -54 21 -29 23 -44 20 -105 -3 -59 -8 -77 -31 -107 -66 -87 -224 -72 -271 27 -20 42 -21 137 -2 174 19 37 58 71 92 82 43 14 112 5 143 -17z m-1547 -50 l3 -68 61 -3 c48 -2 63 -7 66 -20 9 -35 -2 -42 -68 -42 l-64 0 0 -35 0 -35 75 0 75 0 0 -32 0 -33 -110 0 -110 0 0 168 0 167 35 0 34 0 3 -67z m233 35 c10 -33 11 -33 77 -36 l66 -3 12 36 c11 32 15 35 50 35 l39 0 -30 -87 c-17 -49 -46 -124 -65 -168 l-34 -80 -40 3 -39 4 -42 107 c-39 98 -79 210 -79 218 0 1 17 3 38 3 34 0 39 -3 47 -32z m645 -38 l0 -70 65 0 65 0 0 70 0 70 35 0 35 0 0 -168 0 -169 -35 1 -35 1 0 63 0 62 -65 0 -65 0 0 -62 0 -63 -35 0 -35 0 0 168 0 167 35 0 35 0 0 -70z m350 -95 c0 -156 -1 -165 -19 -165 -11 0 -26 -3 -35 -6 -14 -5 -16 13 -16 165 l0 171 35 0 35 0 0 -165z m532 58 l3 -108 54 75 c29 41 60 90 69 108 13 26 21 32 49 32 l33 0 0 -164 0 -164 -35 -4 -34 -4 -3 99 -3 99 -48 -68 c-68 -99 -90 -121 -125 -126 l-32 -5 0 169 0 168 35 0 34 0 3 -107z m-821 -383 c14 -8 19 -21 19 -56 0 -88 42 -144 109 -144 56 0 89 47 62 88 -6 10 -10 9 -14 -7 -6 -23 -36 -28 -55 -9 -20 20 -14 67 12 93 22 21 28 23 55 14 17 -6 43 -25 58 -42 62 -75 131 -279 140 -421 l6 -89 -25 17 c-13 9 -53 25 -88 37 -59 19 -78 20 -202 14 -128 -7 -140 -9 -156 -30 -17 -21 -33 -21 -60 1 -2 1 1 12 8 23 10 19 8 21 -18 21 -17 0 -52 -6 -78 -14 -27 -8 -67 -20 -89 -26 -22 -6 -46 -14 -52 -16 -10 -4 -13 21 -13 109 0 137 7 149 66 117 55 -29 140 -28 185 3 62 41 75 100 36 158 -26 39 -69 49 -102 25 -19 -15 -19 -15 7 -16 29 0 58 -32 58 -63 0 -10 -11 -29 -25 -42 -18 -19 -35 -25 -69 -25 -37 0 -48 5 -70 31 -83 99 53 257 222 259 29 0 62 -5 73 -10z m-155 -579 c50 -23 76 -58 102 -136 17 -50 25 -61 46 -63 22 -3 26 2 36 40 38 139 115 193 247 173 71 -10 126 -69 143 -150 6 -33 16 -70 21 -83 5 -13 9 -36 9 -51 l0 -29 -457 2 c-427 1 -458 2 -461 18 -2 10 4 32 12 50 9 17 16 45 16 62 0 35 39 124 62 144 50 41 159 53 224 23z m-176 -380 c0 -22 3 -46 6 -55 5 -13 -3 -16 -50 -16 -31 0 -56 3 -56 6 0 3 10 28 21 55 19 42 25 49 50 49 27 0 29 -3 29 -39z m752 -15 c10 -27 17 -50 15 -53 -3 -2 -36 -3 -73 -1 l-69 3 8 53 9 53 45 -3 c44 -3 46 -4 65 -52z m65 -158 c21 -24 65 -86 97 -138 32 -52 72 -112 88 -133 37 -46 100 -84 156 -93 23 -3 42 -10 42 -14 0 -20 -65 -60 -115 -70 -61 -13 -104 -7 -151 20 -26 15 -33 15 -49 4 -23 -17 -82 -18 -115 -1 -24 12 -57 63 -47 74 3 2 15 -1 27 -7 29 -16 66 -5 85 24 14 21 14 28 2 59 -18 41 -56 58 -104 45 -48 -12 -73 -51 -73 -111 0 -44 4 -53 41 -90 40 -40 40 -41 33 -96 -12 -95 -12 -95 -77 -37 -55 48 -58 53 -48 79 19 50 13 94 -17 128 -24 27 -37 33 -84 37 -50 4 -58 1 -87 -24 -63 -56 -47 -148 34 -195 20 -12 35 -29 35 -39 0 -20 -39 -55 -73 -66 -20 -6 -19 -8 12 -33 l32 -26 -58 -102 c-32 -57 -60 -103 -63 -103 -3 0 -31 46 -63 103 l-57 102 31 26 32 26 -32 13 c-32 13 -61 45 -61 66 0 7 16 21 35 33 80 47 97 139 35 194 -25 22 -40 27 -81 27 -45 0 -55 -4 -85 -34 -37 -37 -44 -78 -23 -133 10 -26 7 -31 -48 -79 -32 -29 -59 -51 -61 -49 -2 2 -8 35 -12 73 l-9 70 39 40 c36 36 40 44 40 92 0 44 -4 56 -29 81 -58 58 -151 29 -151 -48 0 -24 7 -37 25 -49 24 -16 38 -15 79 1 16 7 17 5 11 -16 -12 -41 -51 -69 -99 -69 -23 0 -51 6 -61 14 -16 11 -23 11 -49 -4 -45 -26 -96 -32 -155 -19 -48 10 -111 50 -111 69 0 5 19 11 43 15 93 15 140 60 245 235 28 47 67 104 87 128 l37 42 443 0 442 0 40 -42z"/>
 <path d="M3355 2867 c-55 -47 -37 -169 29 -190 45 -15 92 12 107 62 32 108 -59 195 -136 128z"/>
 <path d="M2224 2797 c7 -30 35 -97 40 -97 2 0 11 19 19 43 8 23 18 50 22 60 6 15 1 17 -40 17 -44 0 -47 -1 -41 -23z"/>
 <path d="M2811 2081 c-31 -8 -38 -27 -14 -39 37 -20 181 -18 209 2 18 14 17 15 -18 30 -38 16 -132 20 -177 7z"/>
 <path d="M2573 1844 c-45 -22 -74 -74 -76 -132 -2 -42 1 -47 21 -50 20 -3 22 1 22 38 0 77 35 130 100 148 l35 10 -35 1 c-19 0 -50 -7 -67 -15z"/>
 <path d="M3115 1851 c72 -18 102 -55 112 -142 5 -39 10 -49 24 -49 16 0 19 8 19 48 0 86 -65 153 -145 151 -38 -1 -39 -1 -10 -8z"/>
 </g>

</svg>